<svg width="13" height="12" viewBox="0 0 13 12" fill="none" xmlns="http://www.w3.org/2000/svg">
<path fill-rule="evenodd" clip-rule="evenodd" d="M7.95286 8.1599C7.27551 8.68645 6.42437 9 5.5 9C3.29086 9 1.5 7.20914 1.5 5C1.5 2.79086 3.29086 1 5.5 1C7.70914 1 9.5 2.79086 9.5 5C9.5 5.92434 9.18647 6.77545 8.65996 7.45279L11.8536 10.6464L11.1465 11.3535L7.95286 8.1599ZM8.5 5C8.5 6.65685 7.15685 8 5.5 8C3.84315 8 2.5 6.65685 2.5 5C2.5 3.34315 3.84315 2 5.5 2C7.15685 2 8.5 3.34315 8.5 5Z" fill="black"/>
</svg>
